<svg width="330" height="56" viewBox="0 0 330 56" fill="none" xmlns="http://www.w3.org/2000/svg">
<rect width="329.456" height="56" transform="translate(0.544922)" fill="#424971"/>
<path d="M44.0355 35H40.9035V25.658H36.6015V35H33.4875V22.994H44.0355V35ZM59.2561 29.006C59.2561 30.782 58.6261 32.276 57.3661 33.488C56.1181 34.676 54.5401 35.27 52.6321 35.27C50.7241 35.27 49.1461 34.676 47.8981 33.488C46.6381 32.276 46.0081 30.782 46.0081 29.006C46.0081 28.178 46.1641 27.368 46.4761 26.576C46.8001 25.784 47.2741 25.094 47.8981 24.506C49.1461 23.318 50.7241 22.724 52.6321 22.724C54.5401 22.724 56.1181 23.318 57.3661 24.506C57.9901 25.094 58.4581 25.784 58.7701 26.576C59.0941 27.368 59.2561 28.178 59.2561 29.006ZM52.6321 25.748C51.6481 25.748 50.8381 26.066 50.2021 26.702C49.5661 27.326 49.2481 28.112 49.2481 29.06C49.2481 29.936 49.5661 30.68 50.2021 31.292C50.8621 31.928 51.6721 32.246 52.6321 32.246C53.6161 32.246 54.4201 31.934 55.0441 31.31C55.6921 30.662 56.0161 29.894 56.0161 29.006C56.0161 28.094 55.6921 27.326 55.0441 26.702C54.3721 26.066 53.5681 25.748 52.6321 25.748ZM62.4854 22.994H71.5574V32.588H72.9974V37.7H70.1894V35H62.8814V37.7H60.0734V32.588C60.6014 32.504 61.0574 32.264 61.4414 31.868C61.8614 31.436 62.1374 30.914 62.2694 30.302C62.4134 29.678 62.4854 28.886 62.4854 27.926V22.994ZM65.5094 25.406V28.232C65.5094 29.228 65.4134 30.068 65.2214 30.752C65.0174 31.472 64.6694 32.084 64.1774 32.588H68.4254V25.406H65.5094ZM79.6964 31.022H77.7344V35H74.6204V22.994H79.5884C80.8724 22.994 81.8864 23.354 82.6304 24.074C83.3744 24.794 83.7464 25.766 83.7464 26.99C83.7464 28.286 83.3924 29.282 82.6844 29.978C81.9764 30.674 80.9804 31.022 79.6964 31.022ZM77.7344 25.514V28.502H78.7784C79.3784 28.502 79.8164 28.376 80.0924 28.124C80.3564 27.896 80.4884 27.53 80.4884 27.026C80.4884 26.546 80.3684 26.186 80.1284 25.946C79.8524 25.658 79.4084 25.514 78.7964 25.514H77.7344ZM98.1037 29.006C98.1037 30.782 97.4737 32.276 96.2137 33.488C94.9657 34.676 93.3877 35.27 91.4797 35.27C89.5717 35.27 87.9937 34.676 86.7457 33.488C85.4857 32.276 84.8557 30.782 84.8557 29.006C84.8557 28.178 85.0117 27.368 85.3237 26.576C85.6477 25.784 86.1217 25.094 86.7457 24.506C87.9937 23.318 89.5717 22.724 91.4797 22.724C93.3877 22.724 94.9657 23.318 96.2137 24.506C96.8377 25.094 97.3057 25.784 97.6177 26.576C97.9417 27.368 98.1037 28.178 98.1037 29.006ZM91.4797 25.748C90.4957 25.748 89.6857 26.066 89.0497 26.702C88.4137 27.326 88.0957 28.112 88.0957 29.06C88.0957 29.936 88.4137 30.68 89.0497 31.292C89.7097 31.928 90.5197 32.246 91.4797 32.246C92.4637 32.246 93.2677 31.934 93.8917 31.31C94.5397 30.662 94.8637 29.894 94.8637 29.006C94.8637 28.094 94.5397 27.326 93.8917 26.702C93.2197 26.066 92.4157 25.748 91.4797 25.748ZM100.091 35V22.994H107.903V25.64H103.223V27.71H104.447C106.235 27.71 107.501 28.1 108.245 28.88C108.857 29.528 109.163 30.356 109.163 31.364C109.163 32.408 108.833 33.26 108.173 33.92C107.441 34.64 106.163 35 104.339 35H100.091ZM103.223 32.57H104.303C104.963 32.57 105.425 32.432 105.689 32.156C105.893 31.928 105.995 31.646 105.995 31.31C105.995 30.926 105.875 30.626 105.635 30.41C105.383 30.194 104.939 30.086 104.303 30.086H103.223V32.57ZM114.262 22.994V27.476H118.762V22.994H121.894V35H118.762V30.14H114.262V35H111.148V22.994H114.262ZM131.241 22.994V25.64H127.533V27.638H131.043V30.284H127.533V32.354H131.241V35H124.419V22.994H131.241ZM140.048 22.994V25.64H136.34V27.638H139.85V30.284H136.34V32.354H140.048V35H133.226V22.994H140.048Z" fill="white"/>
<path d="M291 35L297 29L291 23" stroke="white" stroke-width="3" stroke-linecap="square"/>
<path d="M279 35L285 29L279 23" stroke="white" stroke-width="3" stroke-linecap="square"/>
</svg>
