<svg width="232" height="56" viewBox="0 0 232 56" fill="none" xmlns="http://www.w3.org/2000/svg">
<g clip-path="url(#clip0_36:2097)">
<rect width="232" height="56" fill="#424971"/>
<path d="M65.7059 22.994H75.2099V35H72.8699V25.01H68.0459V35H65.7059V22.994ZM79.1463 24.488C80.3463 23.312 81.8883 22.724 83.7723 22.724C85.6563 22.724 87.1923 23.312 88.3803 24.488C89.5803 25.664 90.1803 27.17 90.1803 29.006C90.1803 30.842 89.5803 32.348 88.3803 33.524C87.1923 34.688 85.6563 35.27 83.7723 35.27C81.8883 35.27 80.3463 34.688 79.1463 33.524C77.9583 32.348 77.3643 30.842 77.3643 29.006C77.3643 27.17 77.9583 25.664 79.1463 24.488ZM80.8923 31.994C81.6363 32.762 82.5963 33.146 83.7723 33.146C84.9483 33.146 85.9083 32.762 86.6523 31.994C87.3963 31.214 87.7683 30.218 87.7683 29.006C87.7683 27.794 87.3903 26.798 86.6343 26.018C85.8903 25.238 84.9363 24.848 83.7723 24.848C82.6083 24.848 81.6483 25.238 80.8923 26.018C80.1483 26.798 79.7763 27.794 79.7763 29.006C79.7763 30.218 80.1483 31.214 80.8923 31.994ZM93.4888 22.994H101.589V32.984H102.849V37.7H100.689V35H93.3088V37.7H91.1488V32.984C91.5568 32.996 91.9288 32.852 92.2648 32.552C92.6008 32.24 92.8648 31.844 93.0568 31.364C93.3448 30.632 93.4888 29.582 93.4888 28.214V22.994ZM95.7568 25.01V28.214C95.7568 29.714 95.6188 30.83 95.3428 31.562C95.1268 32.114 94.8148 32.588 94.4068 32.984H99.2488V25.01H95.7568ZM104.395 22.994H107.887C108.631 22.994 109.237 23.06 109.705 23.192C110.185 23.312 110.635 23.552 111.055 23.912C111.871 24.632 112.279 25.598 112.279 26.81C112.279 27.938 111.949 28.832 111.289 29.492C110.581 30.2 109.567 30.554 108.247 30.554H106.735V35H104.395V22.994ZM106.735 25.01V28.538H107.689C108.373 28.538 108.883 28.412 109.219 28.16C109.651 27.824 109.867 27.356 109.867 26.756C109.867 26.168 109.645 25.712 109.201 25.388C108.841 25.136 108.289 25.01 107.545 25.01H106.735ZM115.217 24.488C116.417 23.312 117.959 22.724 119.843 22.724C121.727 22.724 123.263 23.312 124.451 24.488C125.651 25.664 126.251 27.17 126.251 29.006C126.251 30.842 125.651 32.348 124.451 33.524C123.263 34.688 121.727 35.27 119.843 35.27C117.959 35.27 116.417 34.688 115.217 33.524C114.029 32.348 113.435 30.842 113.435 29.006C113.435 27.17 114.029 25.664 115.217 24.488ZM116.963 31.994C117.707 32.762 118.667 33.146 119.843 33.146C121.019 33.146 121.979 32.762 122.723 31.994C123.467 31.214 123.839 30.218 123.839 29.006C123.839 27.794 123.461 26.798 122.705 26.018C121.961 25.238 121.007 24.848 119.843 24.848C118.679 24.848 117.719 25.238 116.963 26.018C116.219 26.798 115.847 27.794 115.847 29.006C115.847 30.218 116.219 31.214 116.963 31.994ZM128.407 35V22.994H135.355V25.01H130.747V27.764H132.367C133.639 27.764 134.641 28.088 135.373 28.736C136.129 29.408 136.507 30.296 136.507 31.4C136.507 32.192 136.285 32.906 135.841 33.542C135.157 34.514 134.005 35 132.385 35H128.407ZM130.747 29.78V32.984H131.863C133.351 32.984 134.095 32.462 134.095 31.418C134.095 30.962 133.927 30.578 133.591 30.266C133.267 29.942 132.703 29.78 131.899 29.78H130.747ZM141.013 22.994V27.638H146.089V22.994H148.429V35H146.089V29.654H141.013V35H138.673V22.994H141.013ZM157.831 22.994V25.01H153.511V27.692H157.651V29.708H153.511V32.984H157.831V35H151.171V22.994H157.831ZM166.76 22.994V25.01H162.44V27.692H166.58V29.708H162.44V32.984H166.76V35H160.1V22.994H166.76Z" fill="white"/>
<rect x="232.678" y="39" width="25" height="25" transform="rotate(45 232.678 39)" fill="#424971"/>
</g>
<defs>
<clipPath id="clip0_36:2097">
<rect width="232" height="56" fill="white"/>
</clipPath>
</defs>
</svg>
