<svg width="232" height="56" viewBox="0 0 232 56" fill="none" xmlns="http://www.w3.org/2000/svg">
<rect width="232" height="56" fill="white"/>
<path d="M71.577 22.994H74.547C75.855 22.994 76.833 23.246 77.481 23.75C78.225 24.326 78.597 25.154 78.597 26.234C78.597 27.302 78.147 28.088 77.247 28.592C77.859 28.688 78.381 28.94 78.813 29.348C79.389 29.9 79.677 30.65 79.677 31.598C79.677 32.606 79.335 33.416 78.651 34.028C77.919 34.676 76.905 35 75.609 35H71.577V22.994ZM73.917 24.902V27.98H74.583C74.703 27.98 74.811 27.98 74.907 27.98C75.015 27.968 75.165 27.932 75.357 27.872C75.561 27.812 75.729 27.734 75.861 27.638C76.005 27.53 76.131 27.374 76.239 27.17C76.347 26.954 76.401 26.702 76.401 26.414C76.401 25.898 76.233 25.52 75.897 25.28C75.561 25.028 75.129 24.902 74.601 24.902H73.917ZM73.917 29.78V33.092H74.925C75.621 33.092 76.155 32.984 76.527 32.768C77.019 32.48 77.265 32.018 77.265 31.382C77.265 30.734 76.971 30.278 76.383 30.014C76.047 29.858 75.513 29.78 74.781 29.78H73.917ZM88.3838 22.994V28.07L92.7938 22.994H95.7458L90.6698 28.538L96.0158 35H92.9198L88.6538 29.618L88.3838 29.888V35H86.0438V22.994H88.3838ZM105.835 35L104.773 32.48H99.9309L98.8689 35H96.3309L101.497 22.994H103.333L108.355 35H105.835ZM100.669 30.572H104.089L102.379 26.252L100.669 30.572ZM115.674 25.01H112.974V35H110.634V25.01H107.934V22.994H115.674V25.01ZM124.591 35L123.529 32.48H118.687L117.625 35H115.087L120.253 22.994H122.089L127.111 35H124.591ZM119.425 30.572H122.845L121.135 26.252L119.425 30.572ZM130.016 22.994H138.188V35H135.848V25.01H132.356V30.338C132.356 30.794 132.35 31.136 132.338 31.364C132.326 31.592 132.284 31.916 132.212 32.336C132.14 32.756 132.008 33.128 131.816 33.452C131.624 33.764 131.372 34.052 131.06 34.316C130.436 34.844 129.638 35.108 128.666 35.108C128.33 35.108 128 35.072 127.676 35V32.984C127.916 33.056 128.138 33.092 128.342 33.092C128.774 33.092 129.134 32.948 129.422 32.66C129.614 32.468 129.752 32.204 129.836 31.868C129.932 31.532 129.986 31.244 129.998 31.004C130.01 30.764 130.016 30.386 130.016 29.87V22.994ZM142.129 24.488C143.329 23.312 144.871 22.724 146.755 22.724C148.639 22.724 150.175 23.312 151.363 24.488C152.563 25.664 153.163 27.17 153.163 29.006C153.163 30.842 152.563 32.348 151.363 33.524C150.175 34.688 148.639 35.27 146.755 35.27C144.871 35.27 143.329 34.688 142.129 33.524C140.941 32.348 140.347 30.842 140.347 29.006C140.347 27.17 140.941 25.664 142.129 24.488ZM143.875 31.994C144.619 32.762 145.579 33.146 146.755 33.146C147.931 33.146 148.891 32.762 149.635 31.994C150.379 31.214 150.751 30.218 150.751 29.006C150.751 27.794 150.373 26.798 149.617 26.018C148.873 25.238 147.919 24.848 146.755 24.848C145.591 24.848 144.631 25.238 143.875 26.018C143.131 26.798 142.759 27.794 142.759 29.006C142.759 30.218 143.131 31.214 143.875 31.994ZM161.691 22.994V25.01H157.659V35H155.319V22.994H161.691Z" fill="#333333"/>
</svg>
